<?xml version="1.0" encoding="iso-8859-1"?>
<!-- Generator: Adobe Illustrator 16.0.0, SVG Export Plug-In . SVG Version: 6.00 Build 0)  -->
<!DOCTYPE svg PUBLIC "-//W3C//DTD SVG 1.1//EN" "http://www.w3.org/Graphics/SVG/1.1/DTD/svg11.dtd">
<svg version="1.1" id="Capa_1" xmlns="http://www.w3.org/2000/svg" xmlns:xlink="http://www.w3.org/1999/xlink" x="0px" y="0px"
	 width="275.725px" height="275.725px" viewBox="0 0 275.725 275.725" style="enable-background:new 0 0 275.725 275.725;"
	 xml:space="preserve">
<g>
	<g>
		<path d="M137.862,0C61.726,0,0,61.726,0,137.862c0,76.14,61.726,137.862,137.862,137.862c76.139,0,137.862-61.723,137.862-137.862
			C275.725,61.726,214.001,0,137.862,0z M114.26,188.856c0,11.967-7.925,21.655-17.704,21.655c-9.776,0-17.704-9.688-17.704-21.655
			V100.65c0-11.957,7.927-21.655,17.704-21.655c9.779,0,17.704,9.698,17.704,21.655V188.856z M196.877,188.856
			c0,11.967-7.933,21.655-17.704,21.655c-9.771,0-17.698-9.688-17.698-21.655V100.65c0-11.957,7.928-21.655,17.698-21.655
			c9.776,0,17.704,9.698,17.704,21.655V188.856z"/>
	</g>
</g>
<g>
</g>
<g>
</g>
<g>
</g>
<g>
</g>
<g>
</g>
<g>
</g>
<g>
</g>
<g>
</g>
<g>
</g>
<g>
</g>
<g>
</g>
<g>
</g>
<g>
</g>
<g>
</g>
<g>
</g>
</svg>
